<?xml version="1.0" standalone="no"?>
<!DOCTYPE svg PUBLIC "-//W3C//DTD SVG 20010904//EN"
 "http://www.w3.org/TR/2001/REC-SVG-20010904/DTD/svg10.dtd">
<svg version="1.0" xmlns="http://www.w3.org/2000/svg"
 width="356.000000pt" height="356.000000pt" viewBox="0 0 356.000000 356.000000"
 preserveAspectRatio="xMidYMid meet">
<metadata>
Created by potrace 1.14, written by Peter Selinger 2001-2017
</metadata>
<g transform="translate(0.000000,356.000000) scale(0.100000,-0.100000)"
fill="#000000" stroke="none">
<path d="M470 3191 c-14 -5 -42 -20 -63 -34 -21 -14 -64 -31 -95 -37 -146 -27
-199 -56 -233 -127 -37 -77 -14 -185 51 -240 74 -62 103 -155 102 -328 -1
-116 -13 -155 -67 -221 -45 -55 -53 -77 -50 -149 4 -126 22 -176 88 -254 65
-76 104 -194 102 -307 -1 -51 -6 -68 -29 -98 -50 -67 -61 -128 -43 -241 18
-116 131 -226 233 -229 24 0 44 -5 44 -9 0 -5 4 -6 8 -3 5 3 36 7 70 10 44 4
62 2 64 -7 7 -53 3 -126 -7 -151 -11 -26 -12 -53 -6 -112 0 -6 15 -32 32 -58
28 -42 41 -79 55 -156 3 -14 12 -44 21 -67 l16 -43 171 0 c164 0 172 1 192 23
42 44 189 76 327 71 72 -3 139 -27 189 -69 28 -24 36 -25 146 -25 64 0 133 5
153 10 20 6 60 32 90 60 48 44 120 82 184 96 112 26 176 23 226 -10 79 -53
149 -62 258 -36 77 19 152 83 189 160 15 32 30 100 26 123 -1 9 -5 41 -8 70
-3 29 -13 102 -22 162 -24 155 -23 170 1 168 146 -13 192 -16 260 -16 116 0
192 29 242 93 10 13 63 245 79 349 3 18 8 43 10 55 2 11 7 37 10 56 2 19 7 46
9 60 3 14 7 43 11 65 3 22 7 51 9 65 22 128 -152 254 -339 244 -45 -2 -68 -13
-146 -75 -14 -11 -38 -22 -54 -25 -16 -3 -31 -6 -35 -6 -3 -1 -19 1 -36 5 -16
4 -45 9 -64 12 -67 8 -133 51 -179 115 -23 33 -56 69 -72 79 l-30 18 67 32
c94 45 109 54 143 84 45 40 63 80 79 174 26 145 -49 403 -136 469 -21 16 -44
48 -59 83 -40 92 -111 126 -215 101 -60 -15 -112 -58 -128 -108 -11 -33 -21
-42 -68 -62 -32 -14 -69 -40 -91 -65 -32 -36 -47 -44 -104 -58 -96 -21 -161
-14 -230 28 -66 39 -120 56 -139 45 -7 -5 -16 -7 -20 -4 -12 7 -121 -37 -156
-62 -18 -14 -49 -56 -69 -94 -28 -53 -47 -76 -83 -100 -26 -16 -50 -30 -54
-30 -3 0 -18 -5 -34 -12 -44 -17 -54 -20 -109 -21 -41 -1 -60 4 -92 26 -43 31
-106 52 -123 42 -7 -5 -9 11 -5 49 3 39 16 76 41 119 41 75 46 137 15 205 -23
50 -34 63 -80 88 -30 16 -57 19 -172 19 -96 0 -141 4 -149 13 -14 13 -79 15
-119 3z m820 -1466 c0 -14 10 -55 22 -92 17 -51 34 -79 68 -113 40 -40 59 -50
166 -83 139 -44 163 -56 119 -58 -16 -1 -34 -1 -38 0 -21 4 -110 -56 -128 -85
-31 -51 -101 -107 -159 -127 -57 -20 -67 -18 -51 10 17 33 20 99 6 171 -17 90
-34 122 -89 167 -47 39 -71 87 -79 161 l-5 42 77 19 c42 11 79 18 84 16 4 -2
7 -15 7 -28z"/>
</g>
</svg>
